<svg width="51" height="40" viewBox="0 0 51 40" fill="none" xmlns="http://www.w3.org/2000/svg">
<path fill-rule="evenodd" clip-rule="evenodd" d="M0 0C5.5658 0 10.0714 4.47369 10.0714 10C10.0714 15.5242 5.5692 19.9966 0.00629448 20C5.5692 20.0034 10.0714 24.4758 10.0714 30C10.0714 35.5263 5.5658 40 0 40V20V0ZM30.2143 10C30.2143 4.47369 25.7087 0 20.1429 0V20V40C25.7087 40 30.2143 35.5263 30.2143 30C30.2143 24.4758 25.7121 20.0034 20.1492 20C25.7121 19.9966 30.2143 15.5242 30.2143 10ZM40.2858 20C34.72 20 30.2143 15.5263 30.2143 10C30.2143 4.47369 34.72 0 40.2858 0V20ZM40.2858 20C45.7853 20 50.2909 24.4737 50.3572 30C50.3572 35.5263 45.8515 40 40.2857 40L40.2858 20Z" fill="white"/>
</svg>
